<?xml version="1.0" standalone="no"?>
<!DOCTYPE svg PUBLIC "-//W3C//DTD SVG 20010904//EN"
 "http://www.w3.org/TR/2001/REC-SVG-20010904/DTD/svg10.dtd">
<svg version="1.0" xmlns="http://www.w3.org/2000/svg"
 width="904.000000pt" height="903.000000pt" viewBox="0 0 904.000000 903.000000"
 preserveAspectRatio="xMidYMid meet">

<g transform="translate(0.000000,903.000000) scale(0.100000,-0.100000)"
fill="#000000" stroke="none">
<path d="M4115 8975 c-564 -50 -1099 -205 -1610 -465 -690 -352 -1263 -861
-1693 -1505 -107 -162 -157 -246 -245 -416 -66 -127 -99 -198 -193 -419 -106
-251 -227 -725 -268 -1055 -55 -432 -43 -961 29 -1325 9 -41 20 -100 26 -130
79 -409 248 -865 462 -1251 61 -111 172 -292 204 -334 4 -6 24 -33 43 -60 50
-72 165 -227 187 -250 10 -11 29 -33 42 -50 134 -174 424 -459 646 -634 162
-128 516 -371 541 -371 4 0 32 -15 63 -34 110 -67 345 -180 509 -245 855 -341
1784 -410 2682 -199 207 48 477 135 635 203 17 7 58 25 93 39 116 49 236 108
399 198 354 194 663 429 969 733 218 218 234 236 375 416 413 530 696 1130
839 1778 69 314 90 504 97 851 9 447 -24 756 -123 1170 -42 173 -143 480 -208
633 -86 201 -231 485 -310 607 -241 374 -384 556 -651 825 -206 208 -476 429
-695 570 -41 26 -91 58 -110 71 -65 42 -295 169 -390 216 -498 243 -1024 388
-1578 433 -210 17 -571 17 -767 0z m650 -275 c730 -46 1416 -275 2035 -679 30
-20 60 -39 65 -43 6 -5 60 -45 120 -90 109 -80 181 -138 240 -190 16 -14 41
-36 55 -48 36 -30 215 -207 280 -276 394 -418 727 -981 904 -1529 31 -97 46
-150 84 -295 5 -19 19 -80 30 -135 66 -314 86 -510 86 -845 0 -399 -29 -652
-116 -1005 -44 -178 -127 -449 -163 -530 -8 -16 -39 -88 -71 -160 -118 -270
-230 -465 -435 -759 -32 -47 -187 -239 -253 -315 -162 -186 -466 -464 -656
-599 -396 -282 -747 -463 -1172 -603 -163 -53 -409 -115 -558 -139 -30 -5 -82
-14 -115 -19 -230 -41 -709 -53 -1005 -27 -1270 114 -2447 841 -3132 1936
-513 820 -723 1782 -598 2740 91 706 368 1384 798 1955 227 302 513 587 828
829 762 583 1775 887 2749 826z"/>
<path d="M4445 8530 c-3 -6 -4 -81 -1 -168 6 -176 11 -180 -56 48 l-34 115
-53 3 c-30 2 -58 -1 -63 -6 -5 -5 -3 -134 4 -300 l12 -292 43 0 44 0 -5 198
-6 197 26 -80 c14 -44 42 -131 61 -192 19 -62 38 -115 41 -116 4 -2 27 -2 51
1 l44 4 -7 162 c-3 88 -9 223 -13 299 l-6 137 -38 0 c-21 0 -41 -5 -44 -10z"/>
<path d="M4706 8513 c-3 -10 -12 -49 -20 -88 -7 -38 -34 -162 -60 -274 -25
-112 -45 -205 -44 -206 2 -1 20 -5 40 -8 43 -6 46 -3 63 62 8 32 16 46 28 45
9 0 33 -1 52 -2 l34 -2 3 -57 3 -58 48 -3 c43 -3 47 -1 47 20 0 50 -52 544
-60 564 -7 17 -18 21 -68 23 -50 2 -61 -1 -66 -16z m77 -310 l6 -73 -39 0
c-45 0 -44 -18 -9 159 11 51 20 96 20 100 2 10 16 -106 22 -186z"/>
<path d="M3935 8492 c-46 -22 -75 -66 -75 -114 0 -49 38 -332 51 -381 25 -96
110 -132 205 -87 82 40 86 76 45 366 -20 134 -33 175 -70 208 -30 28 -106 31
-156 8z m94 -81 c9 -6 22 -64 37 -167 30 -204 30 -240 4 -254 -29 -16 -57 -4
-65 27 -9 37 -45 312 -45 349 0 46 33 68 69 45z"/>
<path d="M5020 8505 c0 -3 -11 -77 -25 -163 -48 -305 -55 -351 -55 -390 l0
-40 115 -17 c64 -10 118 -15 121 -12 3 3 8 23 11 45 l5 39 -64 7 c-73 8 -93
18 -85 40 4 9 13 69 22 133 8 65 22 156 30 203 22 123 20 150 -7 150 -13 0
-33 3 -45 6 -13 4 -23 3 -23 -1z"/>
<path d="M3702 8450 c-18 -4 -36 -10 -39 -13 -4 -5 38 -222 106 -537 7 -33 9
-35 49 -34 23 0 45 4 48 7 4 4 -3 55 -15 114 -75 369 -97 467 -106 469 -6 1
-25 -2 -43 -6z"/>
<path d="M3505 8403 c-27 -8 -83 -24 -123 -35 l-74 -21 7 -36 c9 -49 15 -52
58 -39 23 7 41 8 46 2 5 -5 33 -92 61 -194 29 -102 58 -205 65 -230 12 -44 13
-45 51 -43 21 2 42 7 47 12 8 8 -23 131 -102 408 -12 40 -21 77 -21 82 0 5 18
12 40 16 22 4 42 10 45 14 2 4 -1 24 -7 44 -13 41 -18 42 -93 20z"/>
<path d="M5456 8288 c-79 -279 -99 -364 -92 -393 11 -42 68 -92 116 -100 93
-16 135 20 174 148 22 73 104 366 109 390 3 12 -75 39 -84 30 -5 -5 -31 -91
-59 -193 -68 -250 -78 -278 -99 -285 -25 -8 -49 3 -56 25 -6 19 3 54 74 309
23 79 41 152 41 162 0 16 -44 39 -75 39 -6 0 -28 -60 -49 -132z"/>
<path d="M3137 8288 l-58 -20 6 -42 c7 -42 75 -395 96 -498 6 -32 15 -58 19
-58 4 0 24 7 43 15 34 14 35 16 26 47 -5 18 -9 45 -9 60 0 23 6 29 38 37 55
16 57 15 82 -34 13 -25 28 -45 33 -45 22 0 77 25 77 35 0 5 -21 46 -46 90 -26
44 -62 109 -82 145 -47 87 -163 290 -165 289 -1 0 -28 -10 -60 -21z m107 -239
c31 -56 56 -107 56 -114 0 -12 -57 -42 -64 -34 -2 2 -13 49 -25 104 -12 55
-24 110 -27 123 -12 44 5 21 60 -79z"/>
<path d="M5860 8288 c-6 -13 -55 -138 -109 -278 l-99 -255 37 -16 c20 -9 39
-14 43 -10 3 3 34 78 68 166 34 88 66 169 71 180 12 24 6 -52 -26 -332 l-8
-63 36 -15 c20 -8 41 -15 47 -15 12 0 12 -2 95 215 37 94 79 203 96 244 16 40
29 79 29 85 0 11 -45 36 -65 36 -6 0 -28 -44 -49 -97 -21 -54 -44 -111 -51
-128 -7 -16 -15 -37 -18 -45 -9 -25 -7 60 3 135 5 39 12 93 16 122 l7 52 -35
14 c-70 30 -77 30 -88 5z"/>
<path d="M2858 8174 c-16 -8 -28 -17 -28 -19 0 -2 29 -63 65 -136 61 -123 81
-175 52 -138 -19 25 -87 106 -146 175 -58 68 -58 68 -131 25 -14 -8 -26 -16
-28 -17 -1 0 45 -100 104 -220 58 -120 114 -238 125 -261 10 -23 23 -44 29
-48 13 -8 70 23 70 38 0 6 -36 84 -79 172 -43 88 -76 162 -74 165 3 3 15 -7
26 -21 98 -117 220 -260 228 -265 13 -7 89 25 89 38 0 5 -30 70 -66 146 -37
75 -93 192 -125 260 -32 67 -64 122 -71 122 -7 -1 -25 -8 -40 -16z"/>
<path d="M6196 8078 c-21 -46 -70 -148 -108 -228 -121 -252 -117 -232 -59
-256 32 -13 51 -12 51 5 0 8 82 183 196 417 24 50 44 95 44 100 0 6 -17 16
-37 24 -21 8 -40 16 -43 18 -3 1 -23 -35 -44 -80z"/>
<path d="M6386 8072 c-2 -4 -30 -75 -61 -157 -31 -83 -76 -201 -101 -263 -24
-62 -44 -118 -44 -125 0 -7 24 -25 54 -39 61 -30 46 -38 137 78 29 38 104 134
166 213 62 80 113 150 113 156 0 6 -16 19 -35 28 l-34 16 -128 -169 c-70 -93
-129 -168 -130 -166 -2 2 30 88 72 192 41 103 75 193 75 199 0 11 -51 45 -68
45 -6 0 -13 -4 -16 -8z"/>
<path d="M2366 7907 l-29 -23 80 -120 c93 -139 96 -144 89 -144 -3 0 -16 10
-28 23 -88 85 -208 187 -220 187 -8 0 -34 -14 -57 -30 l-41 -30 162 -243 c88
-133 163 -244 165 -247 6 -6 73 32 73 41 0 5 -47 79 -105 165 -58 86 -103 159
-100 162 5 5 43 -29 135 -118 50 -49 159 -140 168 -140 21 0 72 35 72 50 0 18
-310 483 -325 487 -5 2 -23 -8 -39 -20z"/>
<path d="M6680 7823 c-25 -36 -78 -114 -118 -172 -40 -58 -89 -130 -108 -160
-20 -30 -42 -61 -50 -68 -8 -8 -14 -17 -14 -21 1 -4 47 -39 103 -79 l102 -72
22 27 c33 39 29 53 -28 90 -27 18 -53 39 -56 48 -4 11 39 86 84 143 1 2 28
-12 58 -33 l55 -36 20 32 c11 18 20 36 20 40 0 4 -20 21 -45 38 -25 17 -45 36
-45 42 0 8 34 59 77 117 3 5 115 -69 124 -82 6 -8 59 52 59 66 0 5 -205 147
-212 147 -2 0 -23 -30 -48 -67z"/>
<path d="M4360 7774 c-303 -25 -402 -40 -605 -90 -201 -49 -368 -104 -518
-171 -97 -44 -330 -163 -348 -179 -8 -8 -19 -14 -24 -14 -10 0 -197 -126 -280
-189 -394 -297 -712 -677 -939 -1122 -128 -248 -250 -608 -291 -855 -50 -301
-63 -526 -45 -786 36 -543 196 -1041 481 -1496 56 -90 202 -296 233 -328 6 -6
31 -36 55 -65 71 -87 309 -318 417 -405 217 -175 454 -321 694 -429 106 -47
295 -120 367 -140 27 -8 80 -23 118 -35 254 -74 601 -115 920 -107 349 9 608
54 950 165 353 115 757 345 1060 605 112 96 308 299 401 415 47 59 93 116 102
127 37 45 196 303 252 408 158 301 275 655 325 987 32 213 37 305 32 580 -5
298 -22 432 -87 691 -71 286 -206 617 -338 834 -17 28 -45 75 -63 105 -17 30
-70 107 -117 170 -195 263 -368 442 -622 645 -73 59 -90 71 -207 149 -412 276
-884 449 -1395 511 -125 15 -440 27 -528 19z m525 -770 c677 -88 1278 -455
1687 -1029 317 -446 475 -1011 438 -1567 -11 -167 -12 -176 -41 -323 -24 -117
-58 -244 -95 -347 -28 -78 -124 -300 -133 -308 -3 -3 -24 -39 -45 -80 -79
-150 -238 -359 -387 -510 -397 -403 -899 -649 -1469 -721 -164 -21 -466 -16
-640 10 -758 114 -1392 545 -1782 1211 -251 429 -367 971 -314 1470 46 432
181 799 426 1157 90 131 229 294 327 383 108 99 132 119 223 187 383 286 821
448 1315 487 93 7 369 -4 490 -20z"/>
<path d="M4370 6825 c-104 -19 -189 -45 -278 -86 -79 -36 -193 -101 -219 -124
-6 -5 -26 -21 -44 -35 -51 -39 -141 -121 -169 -155 -14 -16 -31 -36 -37 -43
-35 -37 -106 -147 -146 -227 -60 -117 -93 -208 -119 -325 -21 -93 -22 -115
-25 -1069 -2 -536 -2 -979 0 -985 3 -7 48 -10 131 -8 l126 3 0 914 c0 599 4
940 11 992 33 243 137 450 307 614 136 131 281 212 457 254 l90 21 0 134 c0
81 -4 134 -10 135 -5 2 -39 -3 -75 -10z"/>
<path d="M4712 6703 l3 -136 80 -18 c353 -76 635 -334 747 -684 46 -147 48
-183 48 -1168 l0 -928 130 3 131 3 -1 955 c0 1046 0 1036 -61 1225 -144 451
-526 790 -979 870 -47 8 -89 15 -93 15 -4 0 -6 -62 -5 -137z"/>
<path d="M3288 6313 c7 -3 16 -2 19 1 4 3 -2 6 -13 5 -11 0 -14 -3 -6 -6z"/>
<path d="M3044 6200 c0 -63 1 -89 3 -57 2 31 2 83 0 115 -2 31 -3 5 -3 -58z"/>
<path d="M3061 6294 c0 -11 3 -14 6 -6 3 7 2 16 -1 19 -3 4 -6 -2 -5 -13z"/>
<path d="M3360 6219 c0 -5 5 -7 10 -4 6 3 10 8 10 11 0 2 -4 4 -10 4 -5 0 -10
-5 -10 -11z"/>
<path d="M3356 6152 c-3 -5 1 -9 9 -9 8 0 12 4 9 9 -3 4 -7 8 -9 8 -2 0 -6 -4
-9 -8z"/>
<path d="M3330 6121 c0 -6 5 -13 10 -16 6 -3 10 1 10 9 0 9 -4 16 -10 16 -5 0
-10 -4 -10 -9z"/>
<path d="M3830 6055 c0 -14 2 -25 4 -25 2 0 6 11 8 25 3 14 1 25 -3 25 -5 0
-9 -11 -9 -25z"/>
<path d="M3058 6063 c7 -3 16 -2 19 1 4 3 -2 6 -13 5 -11 0 -14 -3 -6 -6z"/>
<path d="M3801 6054 c0 -11 3 -14 6 -6 3 7 2 16 -1 19 -3 4 -6 -2 -5 -13z"/>
<path d="M3810 5903 c8 -3 19 -11 23 -17 6 -7 7 -6 4 4 -2 8 -12 16 -23 17
-13 2 -15 1 -4 -4z"/>
<path d="M3790 5880 c0 -5 7 -10 15 -10 8 0 15 -5 15 -12 0 -6 3 -8 6 -5 8 8
-14 37 -27 37 -5 0 -9 -4 -9 -10z"/>
<path d="M3770 5861 c0 -9 30 -24 36 -18 2 1 -6 8 -16 15 -11 7 -20 8 -20 3z"/>
<path d="M4055 5840 c-3 -5 -1 -10 4 -10 6 0 11 5 11 10 0 6 -2 10 -4 10 -3 0
-8 -4 -11 -10z"/>
<path d="M4107 5793 c-4 -3 -7 -11 -7 -17 0 -6 5 -5 12 2 6 6 9 14 7 17 -3 3
-9 2 -12 -2z"/>
<path d="M3867 5749 c7 -7 15 -10 18 -7 3 3 -2 9 -12 12 -14 6 -15 5 -6 -5z"/>
<path d="M4161 5704 c0 -11 3 -14 6 -6 3 7 2 16 -1 19 -3 4 -6 -2 -5 -13z"/>
<path d="M4141 5684 c0 -11 3 -14 6 -6 3 7 2 16 -1 19 -3 4 -6 -2 -5 -13z"/>
<path d="M3980 5665 c0 -5 5 -17 10 -25 5 -8 10 -10 10 -5 0 6 -5 17 -10 25
-5 8 -10 11 -10 5z"/>
<path d="M3960 5645 c0 -5 5 -17 10 -25 5 -8 10 -10 10 -5 0 6 -5 17 -10 25
-5 8 -10 11 -10 5z"/>
<path d="M4164 5557 l-1 -42 10 33 c6 20 6 36 1 42 -5 5 -9 -8 -10 -33z"/>
<path d="M4195 5590 c3 -5 8 -10 11 -10 2 0 4 5 4 10 0 6 -5 10 -11 10 -5 0
-7 -4 -4 -10z"/>
<path d="M3982 5535 c0 -16 2 -22 5 -12 2 9 2 23 0 30 -3 6 -5 -1 -5 -18z"/>
<path d="M4190 5545 c0 -5 5 -17 10 -25 5 -8 10 -10 10 -5 0 6 -5 17 -10 25
-5 8 -10 11 -10 5z"/>
<path d="M4181 5494 c0 -11 3 -14 6 -6 3 7 2 16 -1 19 -3 4 -6 -2 -5 -13z"/>
<path d="M4223 5415 c0 -38 2 -53 4 -32 2 20 2 52 0 70 -2 17 -4 1 -4 -38z"/>
<path d="M4051 5404 c0 -11 3 -14 6 -6 3 7 2 16 -1 19 -3 4 -6 -2 -5 -13z"/>
<path d="M4012 5380 c0 -19 2 -27 5 -17 2 9 2 25 0 35 -3 9 -5 1 -5 -18z"/>
<path d="M4060 5366 c0 -8 4 -17 9 -20 5 -4 7 3 4 14 -6 23 -13 26 -13 6z"/>
<path d="M4254 5280 c0 -52 1 -74 3 -47 2 26 2 68 0 95 -2 26 -3 4 -3 -48z"/>
<path d="M4203 5310 c0 -25 2 -35 4 -22 2 12 2 32 0 45 -2 12 -4 2 -4 -23z"/>
<path d="M4051 5324 c0 -11 3 -14 6 -6 3 7 2 16 -1 19 -3 4 -6 -2 -5 -13z"/>
<path d="M4023 5070 c0 -25 2 -35 4 -22 2 12 2 32 0 45 -2 12 -4 2 -4 -23z"/>
<path d="M4253 3845 c0 -38 2 -53 4 -32 2 20 2 52 0 70 -2 17 -4 1 -4 -38z"/>
<path d="M4011 3814 c0 -11 3 -14 6 -6 3 7 2 16 -1 19 -3 4 -6 -2 -5 -13z"/>
<path d="M5377 3573 c-10 -9 -8 -470 2 -584 10 -113 40 -184 107 -253 100
-103 243 -130 371 -72 126 57 213 199 213 349 l0 47 -84 0 -83 0 -6 -74 c-10
-131 -61 -196 -162 -204 -74 -6 -126 24 -160 92 l-25 50 0 328 0 328 -83 0
c-46 0 -87 -3 -90 -7z"/>
<path d="M5902 3409 l3 -171 80 -1 80 -2 3 173 2 172 -85 0 -85 0 2 -171z"/>
<path d="M3110 3110 l0 -460 85 0 85 0 0 460 0 460 -85 0 -85 0 0 -460z"/>
<path d="M3599 3563 c0 -5 -1 -80 -2 -168 l-2 -160 -113 -5 -113 -5 -2 -82 -2
-82 115 -3 115 -3 2 -180 c1 -99 2 -190 2 -202 1 -22 5 -23 86 -23 l85 0 0
460 0 460 -85 0 c-47 0 -85 -3 -86 -7z"/>
<path d="M4197 3564 c-9 -10 -9 -306 1 -320 4 -7 39 -11 87 -11 70 0 81 3 85
19 4 15 9 12 25 -19 10 -21 34 -62 52 -91 18 -29 33 -55 33 -58 0 -3 11 -20
24 -37 24 -32 58 -88 176 -289 l62 -108 89 0 89 0 0 460 0 460 -90 0 -90 0 -2
-302 -3 -303 -22 38 c-13 21 -23 43 -23 49 0 5 -10 24 -22 41 -13 18 -28 41
-34 52 -22 42 -39 71 -52 86 -7 9 -54 88 -105 175 l-93 159 -90 3 c-49 1 -93
0 -97 -4z"/>
<path d="M4194 3047 c-2 -7 -3 -98 -2 -202 l3 -190 85 0 85 0 3 203 2 202 -85
0 c-60 0 -87 -4 -91 -13z"/>
<path d="M7000 7673 c0 -5 -17 -26 -38 -48 -21 -22 -67 -76 -102 -120 -35 -44
-67 -82 -70 -85 -21 -20 -150 -181 -150 -188 0 -10 53 -62 63 -62 3 0 41 42
83 93 42 50 80 93 84 95 14 5 49 -49 43 -66 -4 -9 -35 -53 -70 -97 -35 -43
-63 -83 -63 -87 0 -4 16 -19 36 -35 36 -27 37 -27 50 -8 21 29 67 87 79 99 33
34 59 83 60 115 2 32 6 36 35 42 18 4 49 24 71 45 74 72 89 146 42 201 -64 73
-153 134 -153 106z m77 -185 c-9 -33 -65 -88 -92 -88 -12 0 -29 8 -38 18 -15
17 -13 22 35 81 l51 62 25 -24 c18 -18 23 -32 19 -49z"/>
<path d="M1968 7622 c-26 -20 -47 -40 -48 -44 -1 -21 290 -518 304 -518 7 0
23 11 36 26 l24 25 -27 49 -28 49 22 18 c12 10 27 24 34 31 19 17 23 16 66
-23 22 -19 42 -35 47 -35 11 1 62 48 62 58 0 5 -28 34 -62 63 -65 56 -149 130
-158 139 -9 9 -184 164 -205 182 -20 17 -23 16 -67 -20z m268 -284 c6 -10 -33
-43 -50 -43 -9 0 -78 105 -118 180 -19 37 -14 34 71 -44 50 -46 94 -88 97 -93z"/>
<path d="M1766 7451 c-32 -33 -34 -28 29 -102 16 -19 39 -46 50 -60 11 -13 48
-57 83 -97 85 -99 81 -107 -14 -25 -27 23 -91 76 -143 117 l-95 76 -33 -32
c-36 -34 -40 -49 -20 -70 6 -7 32 -38 57 -68 25 -30 47 -57 50 -60 9 -9 105
-124 120 -145 13 -18 13 -19 0 -9 -32 23 -187 149 -241 195 -31 27 -61 49 -66
49 -10 0 -63 -52 -63 -61 0 -3 30 -30 68 -59 78 -63 76 -62 163 -132 36 -29
85 -69 109 -88 24 -19 61 -50 83 -68 l40 -33 44 43 c23 23 43 46 43 50 0 9
-85 114 -168 210 -24 28 -41 52 -38 55 3 3 65 -43 138 -101 l133 -106 37 37
c21 20 38 42 38 49 0 6 -69 95 -152 196 -84 102 -169 204 -188 227 l-35 43
-29 -31z"/>
<path d="M7236 7377 c-21 -13 -51 -43 -67 -67 -27 -40 -29 -50 -29 -141 0
-104 -9 -141 -42 -176 -25 -27 -50 -29 -72 -7 -22 22 -20 38 9 73 l26 30 -30
33 -29 33 -27 -25 c-67 -62 -73 -146 -14 -206 63 -65 128 -68 197 -9 61 53 75
92 82 226 5 109 7 118 30 138 36 29 68 27 76 -6 4 -15 2 -33 -5 -42 -23 -32
-23 -41 2 -71 l25 -29 25 19 c29 23 57 78 57 113 0 32 -52 102 -89 122 -42 21
-80 19 -125 -8z"/>
<path d="M7463 7113 c-43 -37 -80 -70 -83 -73 -3 -3 -34 -30 -70 -60 -36 -30
-70 -59 -76 -65 -6 -5 -39 -34 -73 -63 -55 -48 -60 -56 -49 -75 16 -30 34 -47
50 -47 7 0 34 20 59 43 25 23 59 53 75 67 16 14 63 54 104 90 42 36 100 85
130 110 87 73 83 67 54 106 -15 19 -30 34 -35 34 -5 0 -43 -30 -86 -67z"/>
<path d="M7617 7027 l-28 -22 26 -37 c14 -20 25 -39 25 -41 0 -3 -26 -24 -57
-48 -32 -24 -62 -47 -68 -51 -5 -5 -64 -49 -130 -99 -66 -50 -124 -96 -130
-100 -12 -12 23 -79 42 -79 7 0 100 65 206 145 179 134 217 158 217 138 0 -5
10 -20 22 -34 l22 -27 33 22 c18 11 33 25 33 30 0 15 -162 226 -174 226 -6 0
-24 -10 -39 -23z"/>
<path d="M1320 6960 c-12 -17 -20 -36 -17 -43 3 -7 58 -56 123 -108 237 -190
324 -259 329 -259 2 0 39 43 81 96 l77 96 -29 23 c-16 14 -33 24 -39 24 -9 0
-62 -62 -85 -98 -6 -11 -12 -12 -22 -4 -7 5 -95 76 -196 157 -101 80 -187 146
-192 146 -5 0 -18 -14 -30 -30z"/>
<path d="M1185 6777 c-22 -34 -42 -64 -45 -67 -3 -3 -16 -21 -27 -40 l-22 -35
172 -115 c94 -63 202 -136 239 -162 38 -27 74 -48 81 -48 6 0 43 46 80 102
l68 101 -28 23 c-15 13 -33 23 -39 24 -6 0 -28 -27 -50 -60 -21 -33 -43 -60
-48 -60 -17 0 -136 82 -136 94 0 6 13 31 30 56 l30 45 -28 22 c-15 12 -32 22
-39 23 -6 0 -24 -20 -40 -45 -15 -24 -35 -44 -43 -44 -21 -1 -110 66 -110 82
0 7 16 36 35 64 41 61 42 67 13 87 -37 26 -51 19 -93 -47z"/>
<path d="M7749 6632 c-107 -127 -124 -143 -214 -197 -53 -32 -99 -65 -102 -72
-7 -19 36 -85 50 -76 206 129 229 138 495 194 58 12 64 24 32 69 l-20 29 -91
-25 c-50 -14 -95 -24 -101 -22 -6 2 19 35 55 73 37 39 67 76 67 83 0 13 -42
82 -50 82 -3 0 -57 -62 -121 -138z"/>
<path d="M1010 6499 c-12 -23 -20 -42 -18 -43 7 -6 78 -46 141 -80 l68 -37
-22 -37 c-13 -20 -24 -39 -25 -41 -2 -1 -49 22 -105 53 -110 60 -116 60 -139
5 -15 -36 -17 -35 85 -89 86 -46 262 -141 362 -196 l62 -35 21 40 c11 22 20
42 20 45 0 3 -48 31 -106 63 -59 32 -108 63 -111 69 -6 16 24 74 39 74 6 0 45
-19 87 -42 42 -24 92 -50 112 -59 l36 -17 17 34 c18 38 21 64 7 64 -5 0 -44
20 -87 43 -283 157 -413 227 -418 227 -3 0 -15 -18 -26 -41z"/>
<path d="M1180 3385 c-16 -19 -5 -44 27 -60 16 -8 18 -14 9 -28 -15 -23 3 -51
37 -55 18 -2 27 2 32 17 9 30 -3 61 -24 61 -15 0 -18 8 -17 38 1 33 -2 37 -25
40 -15 2 -31 -4 -39 -13z"/>
<path d="M940 3364 c-81 -39 -91 -51 -84 -93 4 -20 16 -55 26 -78 18 -39 22
-42 42 -31 44 22 47 28 31 59 -22 42 -19 54 24 73 56 26 82 18 109 -31 l23
-43 -88 -43 c-65 -32 -89 -48 -91 -64 -3 -21 81 -192 176 -355 49 -85 166
-260 244 -365 171 -233 477 -553 673 -707 71 -55 137 -106 145 -113 61 -49 94
-73 101 -73 10 0 41 44 69 100 53 102 10 221 -105 292 -60 36 -148 16 -203
-47 -17 -19 -34 -35 -37 -35 -11 0 -75 63 -75 74 0 6 50 61 110 121 61 60 110
114 110 120 0 5 -11 19 -25 31 l-25 22 -117 -119 c-64 -66 -119 -119 -122
-118 -3 0 -24 21 -45 45 l-40 45 72 72 71 72 -25 29 -26 29 -74 -74 -75 -74
-30 35 c-17 19 -47 53 -67 75 -97 108 -253 314 -347 460 -32 50 -66 101 -75
115 -9 14 -38 66 -65 115 -26 50 -61 114 -77 143 -15 29 -28 55 -28 58 0 2 38
22 85 44 81 39 85 42 85 73 0 43 -47 135 -81 160 -44 32 -105 32 -169 1z
m1263 -1546 c14 -37 -44 -92 -91 -86 -36 4 -42 41 -11 74 25 26 93 34 102 12z
m83 -103 c7 -27 -15 -96 -31 -101 -6 -2 -23 7 -39 21 l-29 23 39 40 c47 48 52
49 60 17z"/>
<path d="M7747 3018 c-42 -11 -87 -54 -123 -118 -30 -53 -30 -63 1 -80 20 -11
27 -11 40 0 8 7 15 18 15 26 0 7 17 31 38 54 34 35 44 40 83 40 73 0 75 -6 26
-101 -103 -197 -98 -189 -115 -180 -10 5 -73 43 -142 85 l-125 76 -22 -28
c-18 -21 -20 -29 -10 -38 26 -26 312 -194 328 -194 10 0 27 13 38 28 25 36
201 378 201 391 0 6 -11 18 -25 27 -20 13 -28 14 -40 4 -11 -9 -22 -10 -42 -2
-46 18 -86 21 -126 10z"/>
<path d="M7950 2795 c-28 -34 26 -84 57 -52 23 23 9 67 -21 67 -13 0 -29 -7
-36 -15z"/>
<path d="M7454 2608 c-102 -117 -106 -200 -12 -281 l51 -44 -44 -56 c-24 -31
-46 -53 -50 -49 -3 4 -12 23 -19 42 -41 109 -122 116 -203 17 -49 -60 -61 -89
-53 -131 8 -43 44 -71 104 -81 23 -4 42 -11 42 -17 0 -10 -257 -270 -345 -349
-78 -69 -163 -140 -240 -198 -38 -30 -75 -58 -82 -63 -9 -7 -26 11 -59 64 -26
40 -52 76 -58 80 -22 15 -48 7 -105 -31 -66 -45 -97 -101 -87 -156 7 -37 80
-153 101 -161 19 -8 145 53 145 69 0 7 -9 23 -18 35 l-19 24 -39 -21 -39 -21
-23 27 c-27 33 -36 64 -27 92 7 23 77 70 82 55 2 -5 25 -40 51 -79 54 -81 77
-90 123 -51 17 14 34 26 37 26 4 0 18 10 32 23 14 12 45 38 70 57 201 154 476
422 637 620 126 155 293 395 293 421 0 10 -21 32 -47 50 -27 18 -50 35 -53 39
-11 13 -104 70 -115 70 -6 0 -20 -10 -31 -22z m100 -110 c25 -18 45 -39 45
-45 1 -16 -51 -92 -63 -93 -4 0 -26 14 -47 31 -44 35 -50 63 -22 110 22 37 32
36 87 -3z m-238 -325 c24 -81 25 -78 -31 -75 -67 4 -85 10 -85 29 0 21 68 103
85 103 7 0 21 -25 31 -57z"/>
<path d="M1555 2000 c-17 -18 -17 -21 0 -46 11 -18 23 -24 36 -21 14 4 19 0
19 -13 0 -48 42 -69 70 -35 20 24 -3 65 -35 65 -19 0 -25 5 -25 23 0 45 -35
60 -65 27z"/>
<path d="M2640 1834 c-27 -27 -26 -28 32 -59 36 -20 50 1 17 26 -29 22 -18 36
15 21 19 -8 25 -8 29 2 16 40 -58 48 -93 10z"/>
<path d="M2543 1773 c-22 -4 -23 -9 -23 -86 0 -86 -15 -160 -44 -215 -18 -34
-27 -36 -80 -16 -18 7 -42 -36 -33 -59 3 -8 32 -25 64 -37 79 -30 152 -24 192
14 33 32 171 255 171 277 0 8 -12 20 -28 27 -32 15 -34 13 -104 -110 -87 -151
-129 -183 -88 -66 35 102 40 280 7 277 -7 -1 -22 -4 -34 -6z"/>
<path d="M6348 1629 c-33 -19 -13 -79 26 -79 10 0 36 32 36 45 0 14 -27 45
-38 45 -4 0 -15 -5 -24 -11z"/>
<path d="M2757 1442 c-49 -97 -88 -180 -88 -184 1 -4 14 -14 31 -23 l30 -15
31 62 c17 35 60 118 95 185 l64 122 -22 15 c-12 9 -29 16 -38 15 -9 0 -48 -66
-103 -177z"/>
<path d="M6266 1571 c-33 -36 6 -83 48 -59 22 12 20 55 -3 68 -25 13 -25 13
-45 -9z"/>
<path d="M3306 1324 c-19 -19 -20 -36 -4 -52 34 -34 90 6 68 48 -13 24 -43 26
-64 4z"/>
<path d="M3566 1279 c-23 -65 -106 -369 -106 -386 0 -16 8 -23 30 -28 33 -7
50 -1 50 19 0 8 21 85 46 172 55 186 62 224 43 224 -8 0 -24 3 -36 6 -15 4
-24 1 -27 -7z"/>
<path d="M5458 1263 c-16 -2 -28 -7 -28 -10 0 -11 81 -327 86 -334 2 -4 1 -10
-4 -13 -19 -11 -321 -66 -477 -87 -243 -31 -673 -31 -925 0 -96 12 -176 24
-179 27 -2 2 3 47 13 100 17 88 17 96 2 113 -17 19 -104 41 -159 41 -35 0 -98
-33 -115 -61 -13 -20 -42 -146 -42 -179 0 -23 38 -45 106 -60 78 -19 76 -17
64 -40 -14 -26 -61 -50 -98 -50 -26 0 -30 -4 -35 -32 -6 -44 -3 -48 45 -48 61
0 118 32 153 85 l30 46 50 -5 c28 -3 118 -14 200 -23 215 -24 656 -24 865 0
293 35 519 86 818 184 177 59 202 70 202 88 0 23 -18 51 -37 56 -6 2 -26 26
-45 54 -38 57 -97 95 -148 94 -19 0 -64 -8 -100 -18 -65 -17 -65 -17 -62 -51
1 -19 5 -36 7 -39 3 -2 29 2 59 9 80 19 135 9 169 -32 15 -18 26 -37 24 -43
-4 -14 -289 -107 -298 -97 -7 6 -89 309 -89 326 0 6 -5 6 -52 -1z m-1605 -256
c16 -11 16 -18 5 -77 -14 -70 -13 -70 -93 -55 -11 2 -26 4 -34 4 -18 1 -10 81
13 116 13 19 25 25 54 25 21 0 46 -6 55 -13z"/>
<path d="M3371 1158 c-9 -24 -32 -85 -51 -136 -20 -58 -40 -97 -52 -103 -30
-16 -86 -2 -104 27 -16 23 -15 29 10 101 27 82 26 86 -22 99 -13 4 -25 4 -27
2 -3 -2 -16 -38 -31 -80 -32 -90 -28 -131 17 -183 31 -35 79 -55 133 -55 39 0
101 37 116 69 18 40 100 261 100 270 0 7 -52 31 -67 31 -2 0 -12 -19 -22 -42z"/>
</g>
</svg>
